<svg width="600" height="600" viewBox="0 0 600 600" fill="none" xmlns="http://www.w3.org/2000/svg">
<g clip-path="url(#clip0_4_2)">
<path d="M323.776 30.1197C333.912 18.2868 353.087 22.0749 357.961 36.8731L405.743 181.926C407.561 187.446 411.691 191.903 417.058 194.135L558.068 252.781C572.454 258.764 574.777 278.171 562.209 287.38L439.021 377.647C434.333 381.082 431.371 386.388 430.907 392.181L418.705 544.413C417.46 559.944 399.721 568.15 387.079 559.043L263.163 469.778C258.447 466.381 252.486 465.203 246.832 466.552L98.2812 501.99C83.126 505.605 69.8398 491.27 74.5943 476.432L121.198 330.997C122.972 325.462 122.25 319.429 119.22 314.469L39.6118 184.139C31.4902 170.843 41.0182 153.777 56.5985 153.714L209.317 153.095C215.129 153.071 220.644 150.52 224.425 146.106L323.776 30.1197Z" fill="#FFDE9F"/>
<path d="M186.157 516.93C191.674 543.414 223.124 510.861 223.124 510.861L260.644 506.447C260.644 506.447 284.37 506.998 299.819 519.137C315.268 531.276 325.751 515.275 325.751 515.275C343.157 521.077 364.481 521.053 382.95 519.195C409.562 516.518 430.893 495.977 434.55 469.481C455.183 320.019 341.752 246.569 341.752 246.569L308.647 157.184C308.647 157.184 319.13 131.251 322.441 108.077C325.751 84.9035 301.474 62.8332 271.679 40.7628C258.644 31.1071 243.708 31.8011 231.029 35.637C216.806 39.9401 204.399 48.789 195.231 60.4839C187.636 70.1727 174.609 83.8947 160.29 86.2718C155.335 87.0884 150.447 89.0527 145.878 92.6281C141.155 96.3249 139.07 102.494 139.003 110.163C138.65 143.666 166.315 183.999 190.571 190.289C220.366 198.014 204.365 271.398 204.365 271.398C155.81 339.816 190.019 415.958 190.019 415.958L181.191 477.755C181.191 477.755 180.639 490.446 186.157 516.93Z" fill="#3F3D56"/>
<path d="M348.374 374.577L336.235 525.758C336.235 525.758 352.788 567.692 296.509 565.485C240.23 563.278 273.335 477.204 273.335 477.204L290.991 364.645" fill="#3F3D56"/>
<path d="M300.697 566.673C299.32 566.673 297.912 566.645 296.466 566.587C284.007 566.099 274.833 561.511 269.197 552.95C253.083 528.472 271.005 480.221 272.263 476.918L289.901 364.474C289.995 363.871 290.556 363.466 291.163 363.554C291.764 363.649 292.176 364.214 292.082 364.816L274.425 477.375C274.413 477.452 274.393 477.527 274.365 477.6C274.172 478.099 255.327 527.872 271.042 551.738C276.264 559.669 284.846 563.923 296.552 564.383C314.928 565.099 327.288 561.179 333.297 552.72C341.158 541.654 335.269 526.317 335.208 526.163C335.147 526.006 335.122 525.837 335.135 525.67L347.274 374.488C347.322 373.882 347.844 373.439 348.462 373.476C349.07 373.526 349.523 374.057 349.474 374.665L337.355 525.599C338.157 527.763 343.184 542.598 335.105 553.985C329.127 562.412 317.561 566.673 300.697 566.673Z" fill="#2F2E41"/>
<path d="M247.954 405.475C247.954 405.475 251.264 545.622 181.743 542.311C112.221 539.001 175.122 494.86 175.122 494.86L181.191 477.756" fill="#3F3D56"/>
<path d="M184.129 543.472C183.321 543.472 182.51 543.452 181.69 543.414C161.84 542.469 150.624 538.021 148.355 530.195C144.267 516.093 170.91 496.514 174.198 494.162L180.151 477.387C180.355 476.812 180.985 476.512 181.559 476.716C182.134 476.919 182.435 477.55 182.231 478.124L176.162 495.229C176.085 495.445 175.943 495.632 175.755 495.763C175.464 495.968 146.647 516.382 150.475 529.581C152.453 536.401 162.99 540.313 181.795 541.209C194.319 541.811 205.297 537.6 214.405 528.707C248.561 495.363 246.872 406.396 246.85 405.501C246.836 404.892 247.318 404.387 247.928 404.372C248.504 404.373 249.042 404.841 249.057 405.449C249.144 409.141 250.792 496.266 215.948 530.285C206.979 539.042 196.283 543.472 184.129 543.472Z" fill="#2F2E41"/>
<path d="M139.004 110.163C146.927 111.112 159.331 111.068 169.604 104.215C180.606 96.8765 169.185 90.0347 160.291 86.2717C155.336 87.0883 150.447 89.0526 145.879 92.628C141.156 96.3247 139.07 102.493 139.004 110.163Z" fill="#2F2E41"/>
<path d="M267.043 90.3206C267.043 90.3206 247.787 40.865 275.366 40.173C302.946 39.481 324.73 82.3383 324.73 82.3383C324.73 82.3383 393.951 208.517 299.113 201.713C204.275 194.908 249.594 144.539 249.594 144.539C249.594 144.539 271.225 117.945 267.043 90.3206Z" fill="#2F2E41"/>
<path d="M372.694 459.896C384.907 465.329 397.668 470.874 411.025 470.343C424.382 469.813 438.438 461.211 440.52 448.007C441.594 441.19 439.463 433.877 442.073 427.489C445.585 418.894 456.912 415.58 465.717 418.525C474.522 421.471 480.99 429.066 485.628 437.109C494.305 452.157 497.782 471.908 488.479 486.577C480.413 499.294 465.116 505.04 450.887 509.969C431.934 516.534 410.773 523.05 392.407 514.986C373.937 506.875 363.875 483.443 370.715 464.465" fill="#3F3D56"/>
<path d="M331.947 221.614C331.947 221.614 356.225 233.753 344.086 246.995C331.947 260.238 256.908 297.757 229.32 292.24C201.732 286.722 195.111 270.169 195.111 265.755C195.111 261.341 197.192 207.946 206.021 210.153C214.849 212.36 270.15 262.445 331.947 221.614Z" fill="#FFB6C1"/>
</g>
<defs>
<clipPath id="clip0_4_2">
<rect width="600" height="600" fill="white"/>
</clipPath>
</defs>
</svg>
